<svg xmlns="http://www.w3.org/2000/svg" width="89" height="90" fill="none" viewBox="0 0 89 90"><path fill="#000" d="M88.156 43.287c-4.744-2.177-7.654-2.727-10.702-3.322-.48-.092-.985-.184-1.49-.298.78-2.017 1.467-4.263 2.109-6.44.917-3.024 1.88-6.164 3.094-8.776l.114-.23-.252-.022a35 35 0 0 0-3.895-.23c-1.375 0-2.773.07-4.171.23-1.65.183-3.483.55-4.72.87-.23-1.1-.299-2.772-.39-4.262l-.023-.39c-.16-3.185.229-6.76 1.054-9.326l.115-.367-.367.138c-4.927 1.994-8.502 5.43-11.618 8.868-3.163-4.95-6.187-10.106-8.25-18.286L48.397 0v29.813c0 .848.023 1.719.07 2.658.137 3.575.251 7.264-1.376 8.96-.596.619-1.398.917-2.406.917h-.641c-1.032 0-1.81-.298-2.407-.917-1.627-1.696-1.49-5.385-1.374-8.96.022-.94.068-1.81.068-2.658V.023l-.366 1.444c-2.063 8.18-5.088 13.336-8.296 18.263-3.116-3.437-6.691-6.874-11.618-8.868l-.367-.138.115.367c.825 2.567 1.215 6.164 1.054 9.327l-.023.39c-.069 1.558-.16 3.162-.39 4.262-1.237-.298-3.047-.688-4.72-.871a36 36 0 0 0-4.17-.23c-1.353 0-2.659.07-3.896.23l-.252.023.114.229c1.215 2.612 2.177 5.752 3.094 8.776.664 2.177 1.352 4.423 2.108 6.44-.504.091-1.008.206-1.49.298-3.07.572-5.957 1.122-10.7 3.322L0 43.54l.573.115c3.368.619 6.554 2.498 9.945 4.468 4.492 2.636 9.166 5.363 14.689 5.363.252 0 .504 0 .756-.023 3.53-.16 6.715-1.42 9.235-3.69 2.338-2.085 3.965-4.858 4.72-8.043.665.917 1.284 1.26 2.338 1.696-1.81.596-3.002 2.04-3.162 3.827-.184 2.154 1.329 3.735 2.795 5.247 1.032 1.077 2.017 2.109 2.292 3.254l.183.78.184-.78c.252-1.145 1.237-2.154 2.291-3.254 1.467-1.535 2.98-3.093 2.796-5.247-.16-1.788-1.352-3.231-3.162-3.827 1.054-.436 1.672-.78 2.337-1.696.756 3.185 2.406 5.958 4.72 8.043 2.521 2.246 5.73 3.53 9.236 3.69.252 0 .504.023.756.023 5.545 0 10.197-2.727 14.688-5.362 3.37-1.971 6.577-3.85 9.946-4.469l.573-.115zM56.785 22.045c1.03 1.97 1.535 5.247 1.466 7.447-4.995 3.094-7.585 7.012-8.02 12.191-1.009-8.203 3.437-15.995 6.554-19.638m-7.058-8.09c-.023-1.833-.046-3.597-.046-5.201 1.558 3.895 3.895 7.791 5.637 10.701q.447.723.825 1.375c-2.2 2.842-4.812 6.6-6.256 11-.023-5.11-.092-11.848-.16-17.874m11.16 37.559c3.024 0 6.003-.985 8.593-2.819 2.658-1.902 4.766-4.583 6.095-7.814 2.292.39 6.348 1.192 9.51 2.43-2.498.778-4.835 2.2-7.31 3.666-4.125 2.429-8.387 4.972-13.795 4.972a18.3 18.3 0 0 1-4.125-.48c.321.022.665.045 1.031.045m8.295-12.604c.596-3.895.091-9.028-.619-12.626 3.07-.802 5.385-1.123 7.975-1.123.893 0 1.833.046 2.864.115-.733 1.398-1.42 3.85-2.154 6.416-.733 2.567-1.558 5.477-2.52 7.723-2.292-.321-3.163-.459-5.546-.505m-10.93 10.794c5.086 0 9.692-4.102 10.77-9.579 2.039.046 3.735.183 5.293.435-2.269 6.233-8.73 9.487-14.001 9.487-1.1 0-2.177-.137-3.186-.412.367.046.757.069 1.123.069m8.638-24.268c-2.429.688-5.247 2.177-7.287 3.369-.114-3.14-.573-4.812-1.81-7.998 3.002-3.368 5.775-6.004 9.326-7.837-.779 3.231-.847 7.425-.229 12.466m.917 13.474c-4.904.23-8.043 1.742-10.816 3.094-.321.16-.619.298-.917.436 1.788-2.223 3.506-6.692 3.575-12.237 1.925-1.284 5.041-2.727 7.562-3.484.802 4.171 1.33 7.769.596 12.191m-.16 1.26c-1.123 5.249-6.004 8.09-10.083 8.09-2.108 0-3.942-.71-5.18-2.017 3.438-2.2 9.58-6.072 15.263-6.072m-9.442-9.188c-.068 7.447-3.506 11.733-6.485 14.047-1.306-8.18 4.285-12.626 6.485-14.047m-19.41.848c-1.443-4.377-4.055-8.135-6.255-11q.378-.652.825-1.375c1.741-2.91 4.079-6.806 5.637-10.701a362 362 0 0 0-.046 5.202 1276 1276 0 0 0-.16 17.874m-1.832 13.199c-3.002-2.315-6.417-6.6-6.485-14.047 2.177 1.42 7.768 5.866 6.485 14.047m-7.906-16.224c-2.04-1.192-4.858-2.681-7.287-3.369.641-5.041.55-9.235-.23-12.466 3.553 1.833 6.302 4.469 9.327 7.837-1.237 3.186-1.696 4.858-1.81 7.998m-.046 1.398c.046 5.568 1.787 10.037 3.575 12.237-.298-.138-.596-.298-.917-.436-2.773-1.352-5.89-2.864-10.816-3.093-.733-4.446-.206-8.02.573-12.192 2.52.757 5.66 2.2 7.585 3.484m-7.997 9.968c5.683 0 11.847 3.873 15.261 6.05-1.237 1.306-3.07 2.016-5.179 2.016-4.079 0-8.96-2.818-10.082-8.066m-1.536-1.26c-2.383.045-3.254.16-5.545.504-.986-2.246-1.788-5.156-2.521-7.723-.733-2.566-1.42-5.018-2.154-6.416a31 31 0 0 1 2.864-.115c2.59 0 4.904.321 7.975 1.123-.71 3.62-1.215 8.73-.619 12.627m-6.393 1.97c1.306 3.231 3.414 5.935 6.095 7.814 2.613 1.834 5.569 2.819 8.594 2.819.343 0 .687-.023 1.03-.046q-2.096.481-4.124.481c-5.408 0-9.67-2.543-13.772-4.995-2.475-1.49-4.812-2.888-7.31-3.667 3.14-1.237 7.195-2.04 9.487-2.406m6.554-.733c1.077 5.477 5.683 9.579 10.77 9.579.367 0 .756-.023 1.123-.07a12 12 0 0 1-3.186.413c-5.27 0-11.71-3.254-14-9.487 1.557-.275 3.253-.412 5.293-.435m18.813 1.535c-.435-5.179-3.002-9.097-8.02-12.19-.069-2.178.435-5.455 1.466-7.448 3.094 3.643 7.54 11.435 6.554 19.638M69.03 89.602v-5.88h1.076v5.04h2.604v.84zM61.083 89.602l2.15-5.88h1.21l2.15 5.88h-1.142l-.47-1.361h-2.294l-.479 1.36zM62.98 87.4h1.705l-.856-2.444zM54.925 89.602v-5.88h3.838v.865H56V86.2h2.511v.84H56v1.697h2.763v.865zM48.01 89.602v-5.88h2.16q.705 0 1.159.243.462.236.689.647.226.404.227.899 0 .537-.286.983-.277.445-.874.647l1.218 2.46H51.07l-1.093-2.318h-.89v2.319zm1.076-3.108h1.017q.537 0 .79-.26.25-.261.251-.69 0-.42-.252-.671-.243-.252-.798-.252h-1.008zM42.737 89.602v-5.015h-1.713v-.865h4.51v.865h-1.722v5.015zM33.634 89.602v-5.88h1.075l2.764 4.141v-4.141h1.075v5.88h-1.075l-2.764-4.133v4.133zM28.065 89.703q-.882 0-1.546-.387a2.8 2.8 0 0 1-1.033-1.067q-.37-.688-.37-1.587 0-.9.37-1.58.378-.688 1.033-1.075.664-.386 1.546-.386.874 0 1.537.386a2.7 2.7 0 0 1 1.033 1.076q.37.68.37 1.579t-.37 1.587q-.369.681-1.033 1.067-.663.387-1.537.387m0-.966q.84 0 1.335-.555.504-.554.504-1.52t-.504-1.52q-.495-.555-1.335-.555t-1.344.554q-.504.555-.504 1.52 0 .968.504 1.521.504.555 1.344.555M16.214 89.602v-5.88h1.277l1.873 3.73 1.848-3.73h1.277v5.88h-1.075v-4.057l-1.638 3.217h-.849l-1.638-3.217v4.057zM76.017 73.186q-.14 0-.532-.224-.379-.21-.742-.7a44 44 0 0 1-.476-.532 28 28 0 0 0-.742-.868q-.42-.49-.91-1.05-.476-.56-.966-1.106-.475-.561-.91-1.05a64 64 0 0 0-.756-.868 10 10 0 0 0-.49-.546.8.8 0 0 0-.14-.154q-.056-.056-.112-.056-.055 0-.084.112a.7.7 0 0 0-.028.182q-.014.672-.014 1.554t-.014 1.82v1.736q0 .405.224.714.224.294.756.406.195.042.308.098.126.056.126.168 0 .084-.112.126a.8.8 0 0 1-.28.042 5 5 0 0 1-.588-.028l-.364-.028h-.448q-.266 0-.462.014l-.364.028q-.181.014-.448.014a.9.9 0 0 1-.28-.042q-.112-.028-.112-.126 0-.099.112-.154a1.2 1.2 0 0 1 .322-.126.94.94 0 0 0 .56-.406q.181-.308.21-.728.056-.533.112-1.4.07-.868.112-1.946t.042-2.226q0-.743-.378-1.064a2.9 2.9 0 0 0-.966-.518 6 6 0 0 1-.252-.112q-.168-.084-.168-.21t.126-.168a.7.7 0 0 1 .21-.042q.365.014.63.028.28 0 .532.014t.532.028h.658q.127 0 .196.07a.6.6 0 0 1 .126.14q.154.182.476.574.335.392.77.924l.952 1.134q.504.587 1.008 1.19.504.602.952 1.134t.77.924q.336.378.476.546.056.055.14.154.097.098.168.098.125 0 .14-.266v-2.142q.014-.743.014-1.554 0-.826-.014-1.638-.014-.309-.294-.518a1.45 1.45 0 0 0-.602-.294 1.5 1.5 0 0 1-.364-.098q-.168-.07-.168-.182 0-.084.168-.126t.322-.042h1.512q.195-.015.42-.028.238-.015.644-.014.167 0 .266.042.112.042.112.14 0 .195-.434.28-.504.098-.686.266-.182.154-.196.518 0 .225-.014.742-.015.504-.028 1.19 0 .686-.014 1.442t-.014 1.484v1.316q0 .336.028.658.028.307.042.546.028.224.028.336 0 .266-.098.35a.32.32 0 0 1-.238.098M58.409 73.13a5 5 0 0 1-1.792-.322 4.9 4.9 0 0 1-1.498-.938 4.7 4.7 0 0 1-1.05-1.456 4.6 4.6 0 0 1-.378-1.89q0-.953.308-1.82.323-.881.924-1.568.616-.686 1.526-1.092.91-.405 2.086-.406a4.8 4.8 0 0 1 1.792.336q.854.322 1.512.938.658.601 1.036 1.456.392.84.392 1.876 0 .938-.322 1.82a4.6 4.6 0 0 1-.924 1.568 4.3 4.3 0 0 1-1.512 1.092q-.91.406-2.1.406m.224-.588q.98 0 1.624-.448a2.75 2.75 0 0 0 .98-1.274q.336-.812.336-1.876 0-.939-.21-1.778a5 5 0 0 0-.602-1.498 2.94 2.94 0 0 0-1.022-1.036q-.615-.378-1.442-.378-.952 0-1.61.448-.645.448-.98 1.246-.322.798-.322 1.862 0 .952.196 1.792.195.84.602 1.512.406.657 1.008 1.05.615.378 1.442.378M46.09 73.144q-1.009 0-1.947-.336a5.2 5.2 0 0 1-1.638-.952 4.6 4.6 0 0 1-1.134-1.484 4.5 4.5 0 0 1-.406-1.932q0-.995.42-1.862a4.6 4.6 0 0 1 1.163-1.526 5.5 5.5 0 0 1 1.75-1.022 6 6 0 0 1 2.155-.378q.519 0 .924.056.406.042.784.126t.813.224q.181.055.266.154.098.098.111.294.043.364.07.756.043.391.056.868a.19.19 0 0 1-.111.182.3.3 0 0 1-.224.028q-.127-.043-.169-.196a5.3 5.3 0 0 0-.294-.826 1.54 1.54 0 0 0-.49-.602 2.35 2.35 0 0 0-.825-.392 4 4 0 0 0-1.106-.14q-.785 0-1.443.322a3.3 3.3 0 0 0-1.12.882q-.461.547-.727 1.246a4.3 4.3 0 0 0-.253 1.456q0 .882.238 1.694.252.812.714 1.442.476.63 1.148 1.008.673.364 1.513.364 1.007 0 1.665-.448.66-.462 1.106-1.316.099-.195.295-.196.196 0 .196.224 0 .14-.057.392-.042.237-.126.532-.083.28-.167.518a1 1 0 0 1-.154.252.8.8 0 0 1-.267.14 5.4 5.4 0 0 1-1.26.336 9.5 9.5 0 0 1-1.47.112M28.682 73.004a1 1 0 0 1-.294-.042q-.112-.042-.112-.14 0-.182.434-.266.533-.099.714-.308.195-.225.196-.714V65.22q0-.475-.196-.672-.195-.196-.742-.308-.405-.085-.406-.28 0-.099.098-.14a.8.8 0 0 1 .266-.042q.364 0 .63.014.28.014.532.028h1.05q.238-.014.49-.014.266-.014.616-.014.168 0 .252.042.098.027.098.126a.21.21 0 0 1-.098.182q-.098.056-.308.098-.533.126-.672.35-.126.225-.126.63v2.702q0 .07.014.168.028.084.084.084.07 0 .168-.07.112-.084.196-.168l2.758-2.87q.112-.126.168-.224a.4.4 0 0 0 .07-.21q0-.267-.378-.35a1.4 1.4 0 0 1-.308-.112.23.23 0 0 1-.084-.182q0-.084.098-.126a.8.8 0 0 1 .266-.042h.826q.435 0 .91-.014l.896-.028q.42-.014.644-.014.14 0 .224.056.098.042.098.112 0 .112-.126.182a1 1 0 0 1-.322.112 5.3 5.3 0 0 0-1.12.322q-.546.21-1.008.574-.476.391-.896.784-.42.392-.826.812-.406.405-.882.91-.126.112.056.308l3.374 3.654q.266.294.448.476.195.168.434.294.238.112.616.196.21.056.336.112.126.043.126.154 0 .084-.126.126a.8.8 0 0 1-.336.056q-.406 0-.742-.028a15 15 0 0 1-.658-.042 17 17 0 0 0-1.344 0 8 8 0 0 1-.742.028.8.8 0 0 1-.266-.042q-.098-.042-.098-.14 0-.168.35-.252.448-.099.448-.322a.26.26 0 0 0-.07-.168 2 2 0 0 0-.14-.21l-2.73-3.066a1.5 1.5 0 0 0-.182-.154q-.084-.07-.14-.07-.055 0-.07.098-.015.084-.014.168 0 .658.014 1.26t.042 1.372q.014.293.084.518.07.224.252.378.182.14.532.224.21.042.322.098t.112.168q0 .084-.126.126a.6.6 0 0 1-.28.056q-.392 0-.644-.028l-.448-.056a3 3 0 0 0-.462-.028q-.322 0-.588.028a35 35 0 0 1-.546.056 7 7 0 0 1-.686.028M21.394 73.144q-.588 0-1.106-.168a3 3 0 0 1-.952-.476l-.126-.126a.7.7 0 0 1-.084-.168 4 4 0 0 1-.14-.798 43 43 0 0 1-.042-.868q0-.098.084-.14a.35.35 0 0 1 .196-.056q.097 0 .154.042.07.028.098.126.294 1.064.868 1.596.573.518 1.246.518a1.5 1.5 0 0 0 1.358-.77q.195-.364.196-.812 0-.532-.182-.868a1.9 1.9 0 0 0-.532-.602 9 9 0 0 0-.868-.574 27 27 0 0 1-1.106-.7 3.5 3.5 0 0 1-.882-.854q-.35-.49-.35-1.204 0-.757.35-1.33.363-.588 1.05-.924.686-.35 1.652-.35.504 0 .91.112.42.098.672.21.126.041.196.14a.65.65 0 0 1 .126.238q.07.294.154.686t.084.798q0 .154-.224.154a.5.5 0 0 1-.238-.056q-.113-.057-.14-.14-.28-.785-.7-1.19-.406-.405-1.036-.406-.42 0-.77.154a1.17 1.17 0 0 0-.546.476q-.196.323-.196.854 0 .378.252.714.265.322.7.63.448.294.994.616.574.35 1.036.728.461.378.728.868.266.476.266 1.148 0 .882-.392 1.512-.393.615-1.106.938-.7.322-1.652.322M11.416 72.99a.8.8 0 0 1-.266-.042q-.098-.028-.098-.126 0-.182.406-.266.532-.099.784-.308.252-.21.252-.686v-6.328q0-.475-.196-.672-.195-.21-.728-.322-.405-.085-.406-.28 0-.099.098-.14a.65.65 0 0 1 .252-.042q.365 0 .644.014.294.014.56.028.268.014.574.014h.546l.532-.028q.28-.014.63-.014.168 0 .266.042.099.027.098.126 0 .111-.112.182-.097.056-.294.098-.546.126-.77.322-.21.196-.21.672v6.328q0 .462.266.672.268.21.784.322.21.042.308.098a.18.18 0 0 1 .098.168q0 .084-.098.126a.6.6 0 0 1-.252.042q-.35 0-.644-.028l-.574-.028q-.265-.014-.574-.014-.336 0-.63.014-.279.015-.588.028a7 7 0 0 1-.658.028M84.26 56.859a1.936 1.936 0 0 1-1.904 1.984 1.935 1.935 0 0 1-1.974-1.912 1.936 1.936 0 0 1 1.903-1.984h.036c1.059 0 1.938.848 1.938 1.912m-3.411 0a1.5 1.5 0 0 0 1.561 1.407 1.5 1.5 0 0 0 1.4-1.57 1.47 1.47 0 0 0-1.471-1.406 1.54 1.54 0 0 0-1.49 1.569m.843-.433c0-.199-.035-.289-.161-.307h-.054c-.036-.054-.036-.144.018-.162.305-.018.574-.036.826-.036.34 0 .754.072.754.505 0 .18-.108.343-.27.415-.036.018-.036.036 0 .108.09.216.216.433.377.595.054.036.09.072.126.09.036 0 .036.09 0 .108-.072 0-.144.019-.216.019a.59.59 0 0 1-.556-.307l-.215-.379a.135.135 0 0 0-.126-.09c-.072 0-.09.036-.09.072v.217c0 .216 0 .288.216.306l.035.018c.036.018.036.126 0 .145-.143 0-.269-.019-.448-.019-.162 0-.305.019-.431.019-.036-.019-.036-.127-.018-.145l.054-.018c.161-.036.161-.072.161-.306zm.413.288c0 .109.018.109.18.109.161.018.287-.109.305-.253v-.036c0-.234-.108-.379-.287-.379-.18 0-.198.036-.198.109zM77.652 60.772c.162 0 .287-.18.287-.47 0-.288-.125-.468-.287-.468H11.368c-.162 0-.287.18-.287.469 0 .288.125.469.287.469zM77.652 76.661c.161 0 .287-.18.287-.469 0-.288-.126-.469-.287-.469H11.368c-.162 0-.288.18-.288.47 0 .288.126.468.288.468z"/></svg>